<?xml version="1.0" encoding="UTF-8" standalone="no"?>
<!-- Created with Inkscape (http://www.inkscape.org/) -->

<svg
   id="svg2"
   version="1.1"
   inkscape:version="1.3 (0e150ed6c4, 2023-07-21)"
   xml:space="preserve"
   width="305.20285"
   height="113.92306"
   viewBox="0 0 305.20285 113.92306"
   sodipodi:docname="Git-logo-orange.svg"
   inkscape:export-filename="kgit.png"
   inkscape:export-xdpi="96"
   inkscape:export-ydpi="96"
   xmlns:inkscape="http://www.inkscape.org/namespaces/inkscape"
   xmlns:sodipodi="http://sodipodi.sourceforge.net/DTD/sodipodi-0.dtd"
   xmlns="http://www.w3.org/2000/svg"
   xmlns:svg="http://www.w3.org/2000/svg"
   xmlns:rdf="http://www.w3.org/1999/02/22-rdf-syntax-ns#"
   xmlns:cc="http://creativecommons.org/ns#"
   xmlns:dc="http://purl.org/dc/elements/1.1/"><metadata
     id="metadata8"><rdf:RDF><cc:Work
         rdf:about=""><dc:format>image/svg+xml</dc:format><dc:type
           rdf:resource="http://purl.org/dc/dcmitype/StillImage" /></cc:Work></rdf:RDF></metadata><defs
     id="defs6" /><sodipodi:namedview
     pagecolor="#ffffff"
     bordercolor="#666666"
     borderopacity="1"
     objecttolerance="10"
     gridtolerance="10"
     guidetolerance="10"
     inkscape:pageopacity="0"
     inkscape:pageshadow="2"
     inkscape:window-width="1920"
     inkscape:window-height="991"
     id="namedview4"
     showgrid="false"
     inkscape:zoom="1.7408096"
     inkscape:cx="169.7486"
     inkscape:cy="8.9039031"
     inkscape:window-x="-9"
     inkscape:window-y="-9"
     inkscape:window-maximized="1"
     inkscape:current-layer="g10"
     inkscape:showpageshadow="2"
     inkscape:pagecheckerboard="0"
     inkscape:deskcolor="#d1d1d1" /><g
     id="g10"
     inkscape:groupmode="layer"
     inkscape:label="ink_ext_XXXXXX"
     transform="matrix(1.25,0,0,-1.25,-6.1e-4,113.96778)"><path
       d="m 89.4215,49.664375 -39.7938,39.791 c -2.2898,2.2918 -6.0066,2.2918 -8.2996,0 l -8.2629,-8.2636 10.4817,-10.4821 c 2.4367,0.8227 5.2297,0.2711 7.1711,-1.6707 1.9515,-1.9539 2.4992,-4.7707 1.6558,-7.2156 l 10.1024,-10.102 c 2.4441,0.8422 5.264,0.2981 7.2156,-1.657 2.7285,-2.7277 2.7285,-7.1476 0,-9.8762 -2.7289,-2.7293 -7.1488,-2.7293 -9.8789,0 -2.0516,2.0532 -2.559,5.0676 -1.5199,7.5954 l -9.4215,9.4218 -8e-4,-24.7929 c 0.6652,-0.3293 1.293,-0.7688 1.8473,-1.3207 2.7277,-2.7274 2.7277,-7.1465 0,-9.8782 -2.7285,-2.7273 -7.1504,-2.7273 -9.8762,0 -2.7281,2.7317 -2.7281,7.1508 0,9.8782 0.6742,0.673 1.4543,1.1824 2.2867,1.5238 v 25.023 c -0.8324,0.3403 -1.6113,0.8461 -2.2867,1.5239 -2.0664,2.0648 -2.5641,5.0976 -1.5043,7.6351 l -10.3324,10.3344 -27.28518,-27.2836 c -2.292576,-2.2937 -2.292576,-6.0105 0,-8.3027 L 41.5133,1.7546251 c 2.291,-2.291797 6.0066,-2.291797 8.3008,0 L 89.4215,41.361275 c 2.2918,2.293 2.2918,6.0109 0,8.3031"
       style="fill:#f3c300;fill-opacity:1;fill-rule:nonzero;stroke:none;stroke-width:0.1"
       id="path20"
       inkscape:connector-curvature="0" /><path
       d="m 108.49074,-28.40151 v -44.767449 h 8.05814 v 24.68605 h 1.53488 l 8.44186,-11.639537 h 8.82559 v 0.383721 l -10.23256,14.517445 v 1.151163 l 11.25581,15.284886 v 0.383721 h -9.2093 l -9.0814,-12.406979 h -1.53488 v 12.406979 z m 38.59416,12.7907 v -7.67442 h 16.5 q 1.72675,0 1.72675,-1.918605 v -7.802327 h -1.15117 q -0.9593,2.110465 -3.19767,3.83721 -2.17442,1.662791 -6.71512,1.662791 -3.90116,0 -7.03488,-1.854652 -3.13373,-1.918605 -4.98838,-5.500001 -1.85465,-3.645349 -1.85465,-8.825582 v -1.151163 q 0,-5.11628 1.91861,-8.697676 1.98256,-3.64535 5.18023,-5.563955 3.26163,-1.918605 7.09884,-1.918605 3.83721,0 6.07558,1.470931 2.30233,1.406977 3.51744,4.02907 h 1.15117 v -4.604652 h 8.05814 v 39.523263 q 0,2.174419 -1.40698,3.581396 -1.34302,1.406977 -3.51744,1.406977 z m 9.78488,-19.569771 q 3.77326,0 6.07559,-2.36628 2.36628,-2.430233 2.36628,-6.331396 v -0.767442 q 0,-3.901163 -2.36628,-6.267443 -2.30233,-2.430233 -6.07559,-2.430233 -3.7093,0 -6.07558,2.36628 -2.36628,2.366279 -2.36628,6.331396 v 0.767442 q 0,3.965117 2.36628,6.331396 2.36628,2.36628 6.07558,2.36628 z m 37.82672,-28.267447 q -2.49418,0 -4.28488,-1.726744 -1.7907,-1.790698 -1.7907,-4.348838 0,-2.55814 1.7907,-4.284884 1.7907,-1.790698 4.28488,-1.790698 2.49419,0 4.28489,1.790698 1.7907,1.726744 1.7907,4.284884 0,2.55814 -1.7907,4.348838 -1.7907,1.726744 -4.28489,1.726744 z m -14.7093,35.046518 v -7.67442 h 10.74419 v -16.372096 h -9.97675 v -7.67442 h 18.03489 v 24.046516 h 9.2093 v 7.67442 z m 49.59417,0 q -2.17442,0 -3.5814,-1.406977 -1.34302,-1.406977 -1.34302,-3.581396 v -19.058143 h -9.40116 v -7.67442 h 9.40116 v -13.046513 h 8.05814 v 13.046513 h 11.44768 v 7.67442 h -11.44768 v 14.453491 q 0,1.918605 1.72675,1.918605 h 8.56976 v 7.67442 z"
       id="text1"
       style="font-weight:bold;font-size:63.9535px;line-height:1.55;font-family:'Space Mono';-inkscape-font-specification:'Space Mono Bold';text-align:center;letter-spacing:-2.4px;text-anchor:middle;fill:#f9f9f9;stroke-width:9.17054;stroke-linecap:round;stroke-linejoin:round"
       transform="scale(1,-1)"
       aria-label="kgit" /></g></svg>
