<?xml version="1.0" encoding="UTF-8" standalone="no"?>
<!-- Created with Inkscape (http://www.inkscape.org/) -->

<svg
   id="svg2"
   version="1.1"
   inkscape:version="1.3 (0e150ed6c4, 2023-07-21)"
   xml:space="preserve"
   width="305.20285"
   height="113.92306"
   viewBox="0 0 305.20285 113.92306"
   sodipodi:docname="Git-logo-orange.svg"
   inkscape:export-filename="kgit.png"
   inkscape:export-xdpi="96"
   inkscape:export-ydpi="96"
   xmlns:inkscape="http://www.inkscape.org/namespaces/inkscape"
   xmlns:sodipodi="http://sodipodi.sourceforge.net/DTD/sodipodi-0.dtd"
   xmlns="http://www.w3.org/2000/svg"
   xmlns:svg="http://www.w3.org/2000/svg"
   xmlns:rdf="http://www.w3.org/1999/02/22-rdf-syntax-ns#"
   xmlns:cc="http://creativecommons.org/ns#"
   xmlns:dc="http://purl.org/dc/elements/1.1/"><metadata
     id="metadata8"><rdf:RDF><cc:Work
         rdf:about=""><dc:format>image/svg+xml</dc:format><dc:type
           rdf:resource="http://purl.org/dc/dcmitype/StillImage" /></cc:Work></rdf:RDF></metadata><defs
     id="defs6" /><sodipodi:namedview
     pagecolor="#ffffff"
     bordercolor="#666666"
     borderopacity="1"
     objecttolerance="10"
     gridtolerance="10"
     guidetolerance="10"
     inkscape:pageopacity="0"
     inkscape:pageshadow="2"
     inkscape:window-width="1920"
     inkscape:window-height="991"
     id="namedview4"
     showgrid="false"
     inkscape:zoom="1.7408096"
     inkscape:cx="169.7486"
     inkscape:cy="8.9039029"
     inkscape:window-x="-9"
     inkscape:window-y="-9"
     inkscape:window-maximized="1"
     inkscape:current-layer="g10"
     inkscape:showpageshadow="2"
     inkscape:pagecheckerboard="0"
     inkscape:deskcolor="#d1d1d1" /><g
     id="g10"
     inkscape:groupmode="layer"
     inkscape:label="ink_ext_XXXXXX"
     transform="matrix(1.25,0,0,-1.25,-6.1e-4,113.96778)"><g
       id="g1"><path
         d="m 89.4215,49.664375 -39.7938,39.791 c -2.2898,2.2918 -6.0066,2.2918 -8.2996,0 l -8.2629,-8.2636 10.4817,-10.4821 c 2.4367,0.8227 5.2297,0.2711 7.1711,-1.6707 1.9515,-1.9539 2.4992,-4.7707 1.6558,-7.2156 l 10.1024,-10.102 c 2.4441,0.8422 5.264,0.2981 7.2156,-1.657 2.7285,-2.7277 2.7285,-7.1476 0,-9.8762 -2.7289,-2.7293 -7.1488,-2.7293 -9.8789,0 -2.0516,2.0532 -2.559,5.0676 -1.5199,7.5954 l -9.4215,9.4218 -8e-4,-24.7929 c 0.6652,-0.3293 1.293,-0.7688 1.8473,-1.3207 2.7277,-2.7274 2.7277,-7.1465 0,-9.8782 -2.7285,-2.7273 -7.1504,-2.7273 -9.8762,0 -2.7281,2.7317 -2.7281,7.1508 0,9.8782 0.6742,0.673 1.4543,1.1824 2.2867,1.5238 v 25.023 c -0.8324,0.3403 -1.6113,0.8461 -2.2867,1.5239 -2.0664,2.0648 -2.5641,5.0976 -1.5043,7.6351 l -10.3324,10.3344 -27.28518,-27.2836 c -2.292576,-2.2937 -2.292576,-6.0105 0,-8.3027 L 41.5133,1.7546251 c 2.291,-2.291797 6.0066,-2.291797 8.3008,0 L 89.4215,41.361275 c 2.2918,2.293 2.2918,6.0109 0,8.3031"
         style="fill:#f3c300;fill-opacity:1;fill-rule:nonzero;stroke:none;stroke-width:0.1"
         id="path20"
         inkscape:connector-curvature="0" /><text
         xml:space="preserve"
         style="font-style:normal;font-variant:normal;font-weight:bold;font-stretch:normal;font-size:63.9535px;line-height:1.55;font-family:'Space Mono';-inkscape-font-specification:'Space Mono Bold';text-align:center;letter-spacing:-2.4px;text-anchor:middle;fill:#f9f9f9;fill-opacity:1;stroke-width:9.17054;stroke-linecap:round;stroke-linejoin:round"
         x="175.62325"
         y="-28.40151"
         id="text1"
         transform="scale(1,-1)"><tspan
           sodipodi:role="line"
           id="tspan1"
           style="font-style:normal;font-variant:normal;font-weight:bold;font-stretch:normal;font-family:'Space Mono';-inkscape-font-specification:'Space Mono Bold';letter-spacing:-2.4px;fill:#f9f9f9;fill-opacity:1;stroke-width:9.17054"
           x="174.42325"
           y="-28.40151">kgit</tspan></text></g></g></svg>
